<?xml version="1.0" encoding="UTF-8" standalone="no"?>
<!DOCTYPE svg PUBLIC "-//W3C//DTD SVG 1.1//EN"
 "http://www.w3.org/Graphics/SVG/1.1/DTD/svg11.dtd">
<!-- Generated by graphviz version 2.40.1 (20161225.0304)
 -->
<!-- Title: trace Pages: 1 -->
<svg width="447pt" height="1009pt"
 viewBox="0.00 0.00 447.00 1009.00" xmlns="http://www.w3.org/2000/svg" xmlns:xlink="http://www.w3.org/1999/xlink">
<g id="graph0" class="graph" transform="scale(1 1) rotate(0) translate(4 1005)">
<title>trace</title>
<polygon fill="#ffffff" stroke="transparent" points="-4,4 -4,-1005 443,-1005 443,4 -4,4"/>
<g id="clust1" class="cluster">
<title>cluster_AS2914</title>
<polygon fill="none" stroke="#608686" points="61,-163 61,-389 431,-389 431,-163 61,-163"/>
<text text-anchor="middle" x="246" y="-377" font-family="Times,serif" font-size="10.00" fill="#000000">AS2914</text>
<text text-anchor="middle" x="246" y="-366" font-family="Times,serif" font-size="10.00" fill="#000000">[NTT Communications backbone]</text>
</g>
<g id="clust2" class="cluster">
<title>cluster_AS4837</title>
<polygon fill="none" stroke="#60baba" points="29,-397 29,-839 399,-839 399,-397 29,-397"/>
<text text-anchor="middle" x="214" y="-827" font-family="Times,serif" font-size="10.00" fill="#000000">AS4837</text>
<text text-anchor="middle" x="214" y="-816" font-family="Times,serif" font-size="10.00" fill="#000000">[CMI &#160;(Customer Route)]</text>
</g>
<g id="clust3" class="cluster">
<title>cluster_AS54113</title>
<polygon fill="none" stroke="#60ffff" points="8,-8 8,-91 312,-91 312,-8 8,-8"/>
<text text-anchor="middle" x="160" y="-79" font-family="Times,serif" font-size="10.00" fill="#000000">AS54113</text>
<text text-anchor="middle" x="160" y="-68" font-family="Times,serif" font-size="10.00" fill="#000000">[Fastly]</text>
</g>
<g id="clust4" class="cluster">
<title>cluster_AS198949</title>
<polygon fill="none" stroke="#868660" points="140,-911 140,-993 288,-993 288,-911 140,-911"/>
<text text-anchor="middle" x="214" y="-981" font-family="Times,serif" font-size="10.00" fill="#000000">AS198949</text>
<text text-anchor="middle" x="214" y="-970" font-family="Times,serif" font-size="10.00" fill="#000000">[SFR Telecommunications]</text>
</g>
<!-- 129.250.2.11 -->
<g id="node1" class="node">
<title>129.250.2.11</title>
<ellipse fill="#608686" stroke="#000000" cx="160" cy="-333" rx="72.2875" ry="18"/>
<text text-anchor="middle" x="160" y="-329.3" font-family="Times,serif" font-size="14.00" fill="#000000">129.250.2.11</text>
</g>
<!-- 129.250.6.129 -->
<g id="node2" class="node">
<title>129.250.6.129</title>
<ellipse fill="#608686" stroke="#000000" cx="156" cy="-261" rx="77.9862" ry="18"/>
<text text-anchor="middle" x="156" y="-257.3" font-family="Times,serif" font-size="14.00" fill="#000000">129.250.6.129</text>
</g>
<!-- 129.250.2.11&#45;&gt;129.250.6.129 -->
<g id="edge9" class="edge">
<title>129.250.2.11&#45;&gt;129.250.6.129</title>
<path fill="none" stroke="#a07070" d="M158.9906,-314.8314C158.5628,-307.131 158.0541,-297.9743 157.5787,-289.4166"/>
<polygon fill="#a07070" stroke="#a07070" points="161.0724,-289.2037 157.023,-279.4133 154.0831,-289.592 161.0724,-289.2037"/>
</g>
<!-- 117.103.177.74 -->
<g id="node4" class="node">
<title>117.103.177.74</title>
<ellipse fill="#608686" stroke="#000000" cx="153" cy="-189" rx="83.6854" ry="18"/>
<text text-anchor="middle" x="153" y="-185.3" font-family="Times,serif" font-size="14.00" fill="#000000">117.103.177.74</text>
</g>
<!-- 129.250.6.129&#45;&gt;117.103.177.74 -->
<g id="edge10" class="edge">
<title>129.250.6.129&#45;&gt;117.103.177.74</title>
<path fill="none" stroke="#a07070" d="M155.243,-242.8314C154.9221,-235.131 154.5406,-225.9743 154.184,-217.4166"/>
<polygon fill="#a07070" stroke="#a07070" points="157.6806,-217.2589 153.7672,-207.4133 150.6867,-217.5503 157.6806,-217.2589"/>
</g>
<!-- 117.103.177.78 -->
<g id="node3" class="node">
<title>117.103.177.78</title>
<ellipse fill="#608686" stroke="#000000" cx="339" cy="-189" rx="83.6854" ry="18"/>
<text text-anchor="middle" x="339" y="-185.3" font-family="Times,serif" font-size="14.00" fill="#000000">117.103.177.78</text>
</g>
<!-- unk1 -->
<g id="node18" class="node">
<title>unk1</title>
<ellipse fill="none" stroke="#000000" cx="280" cy="-117" rx="34.394" ry="18"/>
<text text-anchor="middle" x="280" y="-113.3" font-family="Times,serif" font-size="14.00" fill="#000000">unk1</text>
</g>
<!-- 117.103.177.78&#45;&gt;unk1 -->
<g id="edge23" class="edge">
<title>117.103.177.78&#45;&gt;unk1</title>
<path fill="none" stroke="#a04040" d="M324.4157,-171.2022C317.0577,-162.223 308.0196,-151.1934 300.0216,-141.4331"/>
<polygon fill="#a04040" stroke="#a04040" points="302.653,-139.1222 293.6076,-133.6058 297.2386,-143.559 302.653,-139.1222"/>
</g>
<!-- unk0 -->
<g id="node17" class="node">
<title>unk0</title>
<ellipse fill="none" stroke="#000000" cx="174" cy="-117" rx="34.394" ry="18"/>
<text text-anchor="middle" x="174" y="-113.3" font-family="Times,serif" font-size="14.00" fill="#000000">unk0</text>
</g>
<!-- 117.103.177.74&#45;&gt;unk0 -->
<g id="edge11" class="edge">
<title>117.103.177.74&#45;&gt;unk0</title>
<path fill="none" stroke="#a07070" d="M158.2992,-170.8314C160.6048,-162.9266 163.3579,-153.4872 165.9102,-144.7365"/>
<polygon fill="#a07070" stroke="#a07070" points="169.3352,-145.4934 168.7753,-134.9134 162.6152,-143.5334 169.3352,-145.4934"/>
</g>
<!-- 129.250.6.127 -->
<g id="node5" class="node">
<title>129.250.6.127</title>
<ellipse fill="#608686" stroke="#000000" cx="336" cy="-261" rx="77.9862" ry="18"/>
<text text-anchor="middle" x="336" y="-257.3" font-family="Times,serif" font-size="14.00" fill="#000000">129.250.6.127</text>
</g>
<!-- 129.250.6.127&#45;&gt;117.103.177.78 -->
<g id="edge22" class="edge">
<title>129.250.6.127&#45;&gt;117.103.177.78</title>
<path fill="none" stroke="#a04040" d="M336.757,-242.8314C337.0779,-235.131 337.4594,-225.9743 337.816,-217.4166"/>
<polygon fill="#a04040" stroke="#a04040" points="341.3133,-217.5503 338.2328,-207.4133 334.3194,-217.2589 341.3133,-217.5503"/>
</g>
<!-- 129.250.2.153 -->
<g id="node6" class="node">
<title>129.250.2.153</title>
<ellipse fill="#608686" stroke="#000000" cx="331" cy="-333" rx="77.9862" ry="18"/>
<text text-anchor="middle" x="331" y="-329.3" font-family="Times,serif" font-size="14.00" fill="#000000">129.250.2.153</text>
</g>
<!-- 129.250.2.153&#45;&gt;129.250.6.127 -->
<g id="edge21" class="edge">
<title>129.250.2.153&#45;&gt;129.250.6.127</title>
<path fill="none" stroke="#a04040" d="M332.2617,-314.8314C332.7965,-307.131 333.4323,-297.9743 334.0266,-289.4166"/>
<polygon fill="#a04040" stroke="#a04040" points="337.52,-289.6317 334.7213,-279.4133 330.5368,-289.1467 337.52,-289.6317"/>
</g>
<!-- 61.182.183.221 -->
<g id="node7" class="node">
<title>61.182.183.221</title>
<ellipse fill="#60baba" stroke="#000000" cx="121" cy="-711" rx="83.6854" ry="18"/>
<text text-anchor="middle" x="121" y="-707.3" font-family="Times,serif" font-size="14.00" fill="#000000">61.182.183.221</text>
</g>
<!-- 219.158.4.233 -->
<g id="node8" class="node">
<title>219.158.4.233</title>
<ellipse fill="#60baba" stroke="#000000" cx="160" cy="-639" rx="77.9862" ry="18"/>
<text text-anchor="middle" x="160" y="-635.3" font-family="Times,serif" font-size="14.00" fill="#000000">219.158.4.233</text>
</g>
<!-- 61.182.183.221&#45;&gt;219.158.4.233 -->
<g id="edge16" class="edge">
<title>61.182.183.221&#45;&gt;219.158.4.233</title>
<path fill="none" stroke="#a04040" d="M130.8413,-692.8314C135.2627,-684.6688 140.5704,-674.87 145.4385,-665.8827"/>
<polygon fill="#a04040" stroke="#a04040" points="148.6115,-667.3734 150.2969,-656.9134 142.4565,-664.0393 148.6115,-667.3734"/>
</g>
<!-- 219.158.4.170 -->
<g id="node13" class="node">
<title>219.158.4.170</title>
<ellipse fill="#60baba" stroke="#000000" cx="160" cy="-567" rx="77.9862" ry="18"/>
<text text-anchor="middle" x="160" y="-563.3" font-family="Times,serif" font-size="14.00" fill="#000000">219.158.4.170</text>
</g>
<!-- 219.158.4.233&#45;&gt;219.158.4.170 -->
<g id="edge5" class="edge">
<title>219.158.4.233&#45;&gt;219.158.4.170</title>
<path fill="none" stroke="#a07070" d="M154.0476,-620.8314C153.2972,-613.131 153.0763,-603.9743 153.3849,-595.4166"/>
<polygon fill="#a07070" stroke="#a07070" points="156.8792,-595.6161 154.024,-585.4133 149.8935,-595.1697 156.8792,-595.6161"/>
</g>
<!-- 219.158.4.233&#45;&gt;219.158.4.170 -->
<g id="edge17" class="edge">
<title>219.158.4.233&#45;&gt;219.158.4.170</title>
<path fill="none" stroke="#a04040" d="M165.9524,-620.8314C166.7028,-613.131 166.9237,-603.9743 166.6151,-595.4166"/>
<polygon fill="#a04040" stroke="#a04040" points="170.1065,-595.1697 165.976,-585.4133 163.1208,-595.6161 170.1065,-595.1697"/>
</g>
<!-- 221.192.26.113 -->
<g id="node9" class="node">
<title>221.192.26.113</title>
<ellipse fill="#60baba" stroke="#000000" cx="214" cy="-783" rx="83.6854" ry="18"/>
<text text-anchor="middle" x="214" y="-779.3" font-family="Times,serif" font-size="14.00" fill="#000000">221.192.26.113</text>
</g>
<!-- 221.192.26.113&#45;&gt;61.182.183.221 -->
<g id="edge15" class="edge">
<title>221.192.26.113&#45;&gt;61.182.183.221</title>
<path fill="none" stroke="#a04040" d="M191.4873,-765.5708C179.5809,-756.353 164.7853,-744.8983 151.8281,-734.8669"/>
<polygon fill="#a04040" stroke="#a04040" points="153.6776,-731.8725 143.6277,-728.5182 149.3924,-737.4075 153.6776,-731.8725"/>
</g>
<!-- 61.182.183.145 -->
<g id="node11" class="node">
<title>61.182.183.145</title>
<ellipse fill="#60baba" stroke="#000000" cx="307" cy="-711" rx="83.6854" ry="18"/>
<text text-anchor="middle" x="307" y="-707.3" font-family="Times,serif" font-size="14.00" fill="#000000">61.182.183.145</text>
</g>
<!-- 221.192.26.113&#45;&gt;61.182.183.145 -->
<g id="edge3" class="edge">
<title>221.192.26.113&#45;&gt;61.182.183.145</title>
<path fill="none" stroke="#a07070" d="M236.5127,-765.5708C248.4191,-756.353 263.2147,-744.8983 276.1719,-734.8669"/>
<polygon fill="#a07070" stroke="#a07070" points="278.6076,-737.4075 284.3723,-728.5182 274.3224,-731.8725 278.6076,-737.4075"/>
</g>
<!-- 219.158.38.178 -->
<g id="node10" class="node">
<title>219.158.38.178</title>
<ellipse fill="#60baba" stroke="#000000" cx="160" cy="-423" rx="83.6854" ry="18"/>
<text text-anchor="middle" x="160" y="-419.3" font-family="Times,serif" font-size="14.00" fill="#000000">219.158.38.178</text>
</g>
<!-- 219.158.38.178&#45;&gt;129.250.2.11 -->
<g id="edge8" class="edge">
<title>219.158.38.178&#45;&gt;129.250.2.11</title>
<path fill="none" stroke="#a07070" d="M160,-404.7872C160,-392.3443 160,-375.6053 160,-361.4211"/>
<polygon fill="#a07070" stroke="#a07070" points="163.5001,-361.1857 160,-351.1858 156.5001,-361.1858 163.5001,-361.1857"/>
</g>
<!-- 219.158.38.178&#45;&gt;129.250.2.153 -->
<g id="edge20" class="edge">
<title>219.158.38.178&#45;&gt;129.250.2.153</title>
<path fill="none" stroke="#a04040" d="M200.957,-407.2932C213.9604,-401.9145 228.2642,-395.582 241,-389 260.0358,-379.162 280.374,-366.6884 296.8918,-356.0119"/>
<polygon fill="#a04040" stroke="#a04040" points="299.1862,-358.6937 305.6428,-350.2936 295.357,-352.8338 299.1862,-358.6937"/>
</g>
<!-- 61.182.183.145&#45;&gt;219.158.4.233 -->
<g id="edge4" class="edge">
<title>61.182.183.145&#45;&gt;219.158.4.233</title>
<path fill="none" stroke="#a07070" d="M273.2752,-694.4817C252.1917,-684.1551 224.8597,-670.768 202.326,-659.7311"/>
<polygon fill="#a07070" stroke="#a07070" points="203.8344,-656.5727 193.3142,-655.3172 200.7553,-662.8591 203.8344,-656.5727"/>
</g>
<!-- 219.158.3.30 -->
<g id="node12" class="node">
<title>219.158.3.30</title>
<ellipse fill="#60baba" stroke="#000000" cx="160" cy="-495" rx="72.2875" ry="18"/>
<text text-anchor="middle" x="160" y="-491.3" font-family="Times,serif" font-size="14.00" fill="#000000">219.158.3.30</text>
</g>
<!-- 219.158.3.30&#45;&gt;219.158.38.178 -->
<g id="edge7" class="edge">
<title>219.158.3.30&#45;&gt;219.158.38.178</title>
<path fill="none" stroke="#a07070" d="M154.0476,-476.8314C153.2972,-469.131 153.0763,-459.9743 153.3849,-451.4166"/>
<polygon fill="#a07070" stroke="#a07070" points="156.8792,-451.6161 154.024,-441.4133 149.8935,-451.1697 156.8792,-451.6161"/>
</g>
<!-- 219.158.3.30&#45;&gt;219.158.38.178 -->
<g id="edge19" class="edge">
<title>219.158.3.30&#45;&gt;219.158.38.178</title>
<path fill="none" stroke="#a04040" d="M165.9524,-476.8314C166.7028,-469.131 166.9237,-459.9743 166.6151,-451.4166"/>
<polygon fill="#a04040" stroke="#a04040" points="170.1065,-451.1697 165.976,-441.4133 163.1208,-451.6161 170.1065,-451.1697"/>
</g>
<!-- 219.158.4.170&#45;&gt;219.158.3.30 -->
<g id="edge6" class="edge">
<title>219.158.4.170&#45;&gt;219.158.3.30</title>
<path fill="none" stroke="#a07070" d="M154.0476,-548.8314C153.2972,-541.131 153.0763,-531.9743 153.3849,-523.4166"/>
<polygon fill="#a07070" stroke="#a07070" points="156.8792,-523.6161 154.024,-513.4133 149.8935,-523.1697 156.8792,-523.6161"/>
</g>
<!-- 219.158.4.170&#45;&gt;219.158.3.30 -->
<g id="edge18" class="edge">
<title>219.158.4.170&#45;&gt;219.158.3.30</title>
<path fill="none" stroke="#a04040" d="M165.9524,-548.8314C166.7028,-541.131 166.9237,-531.9743 166.6151,-523.4166"/>
<polygon fill="#a04040" stroke="#a04040" points="170.1065,-523.1697 165.976,-513.4133 163.1208,-523.6161 170.1065,-523.1697"/>
</g>
<!-- 151.101.110.219 -->
<g id="node14" class="node">
<title>151.101.110.219</title>
<polygon fill="#00ff00" stroke="#000000" points="16,-16.5 16,-52.5 304,-52.5 304,-16.5 16,-16.5"/>
<text text-anchor="middle" x="85" y="-30.8" font-family="Times,serif" font-size="14.00" fill="#000000">151.101.110.219</text>
<polyline fill="none" stroke="#000000" points="154,-16.5 154,-52.5 "/>
<text text-anchor="middle" x="189.5" y="-30.8" font-family="Times,serif" font-size="14.00" fill="#000000">http SA</text>
<polyline fill="none" stroke="#000000" points="225,-16.5 225,-52.5 "/>
<text text-anchor="middle" x="264.5" y="-30.8" font-family="Times,serif" font-size="14.00" fill="#000000">https SA</text>
</g>
<!-- 192.168.0.1 -->
<g id="node15" class="node">
<title>192.168.0.1</title>
<ellipse fill="#868660" stroke="#000000" cx="214" cy="-937" rx="66.0889" ry="18"/>
<text text-anchor="middle" x="214" y="-933.3" font-family="Times,serif" font-size="14.00" fill="#000000">192.168.0.1</text>
</g>
<!-- 10.14.0.1 -->
<g id="node16" class="node">
<title>10.14.0.1</title>
<ellipse fill="none" stroke="#000000" cx="214" cy="-865" rx="54.6905" ry="18"/>
<text text-anchor="middle" x="214" y="-861.3" font-family="Times,serif" font-size="14.00" fill="#000000">10.14.0.1</text>
</g>
<!-- 192.168.0.1&#45;&gt;10.14.0.1 -->
<g id="edge1" class="edge">
<title>192.168.0.1&#45;&gt;10.14.0.1</title>
<path fill="none" stroke="#a07070" d="M208.0476,-918.8314C207.2856,-911.0125 207.0696,-901.6923 207.3995,-893.0221"/>
<polygon fill="#a07070" stroke="#a07070" points="210.9004,-893.1239 208.0727,-882.9134 203.9159,-892.6587 210.9004,-893.1239"/>
</g>
<!-- 192.168.0.1&#45;&gt;10.14.0.1 -->
<g id="edge13" class="edge">
<title>192.168.0.1&#45;&gt;10.14.0.1</title>
<path fill="none" stroke="#a04040" d="M219.9524,-918.8314C220.7144,-911.0125 220.9304,-901.6923 220.6005,-893.0221"/>
<polygon fill="#a04040" stroke="#a04040" points="224.0841,-892.6587 219.9273,-882.9134 217.0996,-893.1239 224.0841,-892.6587"/>
</g>
<!-- 10.14.0.1&#45;&gt;221.192.26.113 -->
<g id="edge2" class="edge">
<title>10.14.0.1&#45;&gt;221.192.26.113</title>
<path fill="none" stroke="#a07070" d="M208.28,-846.8015C207.2272,-836.3976 206.9815,-823.1215 207.5428,-811.3768"/>
<polygon fill="#a07070" stroke="#a07070" points="211.052,-811.3747 208.2851,-801.1476 204.0704,-810.868 211.052,-811.3747"/>
</g>
<!-- 10.14.0.1&#45;&gt;221.192.26.113 -->
<g id="edge14" class="edge">
<title>10.14.0.1&#45;&gt;221.192.26.113</title>
<path fill="none" stroke="#a04040" d="M219.72,-846.8015C220.7728,-836.3976 221.0185,-823.1215 220.4572,-811.3768"/>
<polygon fill="#a04040" stroke="#a04040" points="223.9296,-810.868 219.7149,-801.1476 216.948,-811.3747 223.9296,-810.868"/>
</g>
<!-- unk0&#45;&gt;151.101.110.219 -->
<g id="edge12" class="edge">
<title>unk0&#45;&gt;151.101.110.219:T80</title>
<path fill="none" stroke="#a07070" d="M180.8783,-99.2211C184.334,-89.0267 188.0745,-75.6681 189.4516,-62.4884"/>
<polygon fill="#a07070" stroke="#a07070" points="192.9464,-62.6769 190,-52.5 185.9569,-62.293 192.9464,-62.6769"/>
</g>
<!-- unk1&#45;&gt;151.101.110.219 -->
<g id="edge24" class="edge">
<title>unk1&#45;&gt;151.101.110.219:T443</title>
<path fill="none" stroke="#a04040" d="M273.5516,-99.1861C270.3437,-89.0786 266.8739,-75.8757 265.5528,-62.8479"/>
<polygon fill="#a04040" stroke="#a04040" points="269.0285,-62.299 265,-52.5 262.0385,-62.6725 269.0285,-62.299"/>
</g>
</g>
</svg>
