<?xml version="1.0" encoding="UTF-8" standalone="no"?>
<!DOCTYPE svg PUBLIC "-//W3C//DTD SVG 1.1//EN"
 "http://www.w3.org/Graphics/SVG/1.1/DTD/svg11.dtd">
<!-- Generated by graphviz version 2.40.1 (20161225.0304)
 -->
<!-- Title: trace Pages: 1 -->
<svg width="711pt" height="648pt"
 viewBox="0.00 0.00 711.10 648.00" xmlns="http://www.w3.org/2000/svg" xmlns:xlink="http://www.w3.org/1999/xlink">
<g id="graph0" class="graph" transform="scale(1 1) rotate(0) translate(4 644)">
<title>trace</title>
<polygon fill="#ffffff" stroke="transparent" points="-4,4 -4,-644 707.1036,-644 707.1036,4 -4,4"/>
<g id="clust1" class="cluster">
<title>cluster_AS24547</title>
<polygon fill="none" stroke="#608686" points="465.1036,-8 465.1036,-90 695.1036,-90 695.1036,-8 465.1036,-8"/>
<text text-anchor="middle" x="580.1036" y="-78" font-family="Times,serif" font-size="10.00" fill="#000000">AS24547</text>
<text text-anchor="middle" x="580.1036" y="-67" font-family="Times,serif" font-size="10.00" fill="#000000">[CMI &#160;(Customer Route)]</text>
</g>
<g id="clust2" class="cluster">
<title>cluster_AS4837</title>
<polygon fill="none" stroke="#60baba" points="8.1036,-324 8.1036,-478 378.1036,-478 378.1036,-324 8.1036,-324"/>
<text text-anchor="middle" x="193.1036" y="-466" font-family="Times,serif" font-size="10.00" fill="#000000">AS4837</text>
<text text-anchor="middle" x="193.1036" y="-455" font-family="Times,serif" font-size="10.00" fill="#000000">[CMI &#160;(Customer Route)]</text>
</g>
<g id="clust3" class="cluster">
<title>cluster_AS198949</title>
<polygon fill="none" stroke="#60ffff" points="38.1036,-550 38.1036,-632 186.1036,-632 186.1036,-550 38.1036,-550"/>
<text text-anchor="middle" x="112.1036" y="-620" font-family="Times,serif" font-size="10.00" fill="#000000">AS198949</text>
<text text-anchor="middle" x="112.1036" y="-609" font-family="Times,serif" font-size="10.00" fill="#000000">[SFR Telecommunications]</text>
</g>
<g id="clust4" class="cluster">
<title>cluster_AS9808</title>
<polygon fill="none" stroke="#868660" points="146.1036,-98 146.1036,-180 666.1036,-180 666.1036,-98 146.1036,-98"/>
<text text-anchor="middle" x="406.1036" y="-168" font-family="Times,serif" font-size="10.00" fill="#000000">AS9808</text>
<text text-anchor="middle" x="406.1036" y="-157" font-family="Times,serif" font-size="10.00" fill="#000000">[PACNET (proxy&#45;registered route object)]</text>
</g>
<!-- 111.11.1.1 443/tcp -->
<g id="node1" class="node">
<title>111.11.1.1 443/tcp</title>
<polygon fill="#ff0000" stroke="#000000" points="686.9654,-26.5442 686.9654,-41.4558 624.3672,-52 535.84,-52 473.2418,-41.4558 473.2418,-26.5442 535.84,-16 624.3672,-16 686.9654,-26.5442"/>
<text text-anchor="middle" x="580.1036" y="-30.3" font-family="Times,serif" font-size="14.00" fill="#000000">111.11.1.1 443/tcp</text>
</g>
<!-- 61.182.181.249 -->
<g id="node2" class="node">
<title>61.182.181.249</title>
<ellipse fill="#60baba" stroke="#000000" cx="100.1036" cy="-350" rx="83.6854" ry="18"/>
<text text-anchor="middle" x="100.1036" y="-346.3" font-family="Times,serif" font-size="14.00" fill="#000000">61.182.181.249</text>
</g>
<!-- unk0 -->
<g id="node12" class="node">
<title>unk0</title>
<ellipse fill="none" stroke="#000000" cx="44.1036" cy="-278" rx="34.394" ry="18"/>
<text text-anchor="middle" x="44.1036" y="-274.3" font-family="Times,serif" font-size="14.00" fill="#000000">unk0</text>
</g>
<!-- 61.182.181.249&#45;&gt;unk0 -->
<g id="edge4" class="edge">
<title>61.182.181.249&#45;&gt;unk0</title>
<path fill="none" stroke="#a07070" d="M86.2609,-332.2022C79.447,-323.4416 71.1153,-312.7293 63.6633,-303.1482"/>
<polygon fill="#a07070" stroke="#a07070" points="66.3036,-300.842 57.4014,-295.0972 60.7781,-305.1396 66.3036,-300.842"/>
</g>
<!-- 221.192.10.121 -->
<g id="node3" class="node">
<title>221.192.10.121</title>
<ellipse fill="#60baba" stroke="#000000" cx="112.1036" cy="-422" rx="83.6854" ry="18"/>
<text text-anchor="middle" x="112.1036" y="-418.3" font-family="Times,serif" font-size="14.00" fill="#000000">221.192.10.121</text>
</g>
<!-- 221.192.10.121&#45;&gt;61.182.181.249 -->
<g id="edge3" class="edge">
<title>221.192.10.121&#45;&gt;61.182.181.249</title>
<path fill="none" stroke="#a07070" d="M109.0755,-403.8314C107.7921,-396.131 106.266,-386.9743 104.8397,-378.4166"/>
<polygon fill="#a07070" stroke="#a07070" points="108.2689,-377.7018 103.1725,-368.4133 101.3642,-378.8526 108.2689,-377.7018"/>
</g>
<!-- 61.182.181.221 -->
<g id="node5" class="node">
<title>61.182.181.221</title>
<ellipse fill="#60baba" stroke="#000000" cx="286.1036" cy="-350" rx="83.6854" ry="18"/>
<text text-anchor="middle" x="286.1036" y="-346.3" font-family="Times,serif" font-size="14.00" fill="#000000">61.182.181.221</text>
</g>
<!-- 221.192.10.121&#45;&gt;61.182.181.221 -->
<g id="edge13" class="edge">
<title>221.192.10.121&#45;&gt;61.182.181.221</title>
<path fill="none" stroke="#a04040" d="M150.7198,-406.0209C176.4239,-395.3847 210.3899,-381.3298 237.8696,-369.9589"/>
<polygon fill="#a04040" stroke="#a04040" points="239.3929,-373.1164 247.2948,-366.0588 236.7164,-366.6483 239.3929,-373.1164"/>
</g>
<!-- 219.158.3.66 -->
<g id="node4" class="node">
<title>219.158.3.66</title>
<ellipse fill="#60baba" stroke="#000000" cx="298.1036" cy="-422" rx="72.2875" ry="18"/>
<text text-anchor="middle" x="298.1036" y="-418.3" font-family="Times,serif" font-size="14.00" fill="#000000">219.158.3.66</text>
</g>
<!-- unk1 -->
<g id="node13" class="node">
<title>unk1</title>
<ellipse fill="none" stroke="#000000" cx="460.1036" cy="-350" rx="34.394" ry="18"/>
<text text-anchor="middle" x="460.1036" y="-346.3" font-family="Times,serif" font-size="14.00" fill="#000000">unk1</text>
</g>
<!-- 219.158.3.66&#45;&gt;unk1 -->
<g id="edge6" class="edge">
<title>219.158.3.66&#45;&gt;unk1</title>
<path fill="none" stroke="#a07070" d="M333.6552,-406.1993C360.5317,-394.2542 397.2786,-377.9222 424.2329,-365.9426"/>
<polygon fill="#a07070" stroke="#a07070" points="425.9673,-369.0019 433.6839,-361.7421 423.1243,-362.6052 425.9673,-369.0019"/>
</g>
<!-- unk4 -->
<g id="node16" class="node">
<title>unk4</title>
<ellipse fill="none" stroke="#000000" cx="569.1036" cy="-350" rx="34.394" ry="18"/>
<text text-anchor="middle" x="569.1036" y="-346.3" font-family="Times,serif" font-size="14.00" fill="#000000">unk4</text>
</g>
<!-- 219.158.3.66&#45;&gt;unk4 -->
<g id="edge16" class="edge">
<title>219.158.3.66&#45;&gt;unk4</title>
<path fill="none" stroke="#a04040" d="M348.2637,-408.917C389.7872,-398.0554 450.313,-382.1513 503.1036,-368 511.4314,-365.7676 520.3434,-363.3539 528.8385,-361.0412"/>
<polygon fill="#a04040" stroke="#a04040" points="529.8332,-364.3978 538.5596,-358.3896 527.991,-357.6445 529.8332,-364.3978"/>
</g>
<!-- unk3 -->
<g id="node15" class="node">
<title>unk3</title>
<ellipse fill="none" stroke="#000000" cx="320.1036" cy="-278" rx="34.394" ry="18"/>
<text text-anchor="middle" x="320.1036" y="-274.3" font-family="Times,serif" font-size="14.00" fill="#000000">unk3</text>
</g>
<!-- 61.182.181.221&#45;&gt;unk3 -->
<g id="edge14" class="edge">
<title>61.182.181.221&#45;&gt;unk3</title>
<path fill="none" stroke="#a04040" d="M294.6832,-331.8314C298.4972,-323.7547 303.0677,-314.0761 307.2748,-305.1668"/>
<polygon fill="#a04040" stroke="#a04040" points="310.5392,-306.4504 311.6445,-295.9134 304.2095,-303.4614 310.5392,-306.4504"/>
</g>
<!-- 192.168.0.1 -->
<g id="node6" class="node">
<title>192.168.0.1</title>
<ellipse fill="#60ffff" stroke="#000000" cx="112.1036" cy="-576" rx="66.0889" ry="18"/>
<text text-anchor="middle" x="112.1036" y="-572.3" font-family="Times,serif" font-size="14.00" fill="#000000">192.168.0.1</text>
</g>
<!-- 10.13.0.1 -->
<g id="node11" class="node">
<title>10.13.0.1</title>
<ellipse fill="none" stroke="#000000" cx="112.1036" cy="-504" rx="54.6905" ry="18"/>
<text text-anchor="middle" x="112.1036" y="-500.3" font-family="Times,serif" font-size="14.00" fill="#000000">10.13.0.1</text>
</g>
<!-- 192.168.0.1&#45;&gt;10.13.0.1 -->
<g id="edge1" class="edge">
<title>192.168.0.1&#45;&gt;10.13.0.1</title>
<path fill="none" stroke="#a07070" d="M106.1512,-557.8314C105.3892,-550.0125 105.1732,-540.6923 105.5031,-532.0221"/>
<polygon fill="#a07070" stroke="#a07070" points="109.004,-532.1239 106.1763,-521.9134 102.0195,-531.6587 109.004,-532.1239"/>
</g>
<!-- 192.168.0.1&#45;&gt;10.13.0.1 -->
<g id="edge11" class="edge">
<title>192.168.0.1&#45;&gt;10.13.0.1</title>
<path fill="none" stroke="#a04040" d="M118.056,-557.8314C118.818,-550.0125 119.034,-540.6923 118.7041,-532.0221"/>
<polygon fill="#a04040" stroke="#a04040" points="122.1877,-531.6587 118.0309,-521.9134 115.2032,-532.1239 122.1877,-531.6587"/>
</g>
<!-- 221.183.19.98 -->
<g id="node7" class="node">
<title>221.183.19.98</title>
<ellipse fill="#868660" stroke="#000000" cx="232.1036" cy="-124" rx="77.9862" ry="18"/>
<text text-anchor="middle" x="232.1036" y="-120.3" font-family="Times,serif" font-size="14.00" fill="#000000">221.183.19.98</text>
</g>
<!-- 111.11.1.1 80/tcp -->
<g id="node10" class="node">
<title>111.11.1.1 80/tcp</title>
<polygon fill="#ff0000" stroke="#000000" points="332.8026,-26.5442 332.8026,-41.4558 273.8145,-52 190.3927,-52 131.4046,-41.4558 131.4046,-26.5442 190.3927,-16 273.8145,-16 332.8026,-26.5442"/>
<text text-anchor="middle" x="232.1036" y="-30.3" font-family="Times,serif" font-size="14.00" fill="#000000">111.11.1.1 80/tcp</text>
</g>
<!-- 221.183.19.98&#45;&gt;111.11.1.1 80/tcp -->
<g id="edge10" class="edge">
<title>221.183.19.98&#45;&gt;111.11.1.1 80/tcp</title>
<path fill="none" stroke="#a07070" d="M232.1036,-105.7872C232.1036,-93.3443 232.1036,-76.6053 232.1036,-62.4211"/>
<polygon fill="#a07070" stroke="#a07070" points="235.6037,-62.1857 232.1036,-52.1858 228.6037,-62.1858 235.6037,-62.1857"/>
</g>
<!-- 221.183.25.53 -->
<g id="node8" class="node">
<title>221.183.25.53</title>
<ellipse fill="#868660" stroke="#000000" cx="406.1036" cy="-124" rx="77.9862" ry="18"/>
<text text-anchor="middle" x="406.1036" y="-120.3" font-family="Times,serif" font-size="14.00" fill="#000000">221.183.25.53</text>
</g>
<!-- unk2 -->
<g id="node14" class="node">
<title>unk2</title>
<ellipse fill="none" stroke="#000000" cx="395.1036" cy="-34" rx="34.394" ry="18"/>
<text text-anchor="middle" x="395.1036" y="-30.3" font-family="Times,serif" font-size="14.00" fill="#000000">unk2</text>
</g>
<!-- 221.183.25.53&#45;&gt;unk2 -->
<g id="edge8" class="edge">
<title>221.183.25.53&#45;&gt;unk2</title>
<path fill="none" stroke="#a07070" d="M403.8776,-105.7872C402.3568,-93.3443 400.3109,-76.6053 398.5773,-62.4211"/>
<polygon fill="#a07070" stroke="#a07070" points="402.0137,-61.6872 397.3263,-52.1858 395.0654,-62.5365 402.0137,-61.6872"/>
</g>
<!-- 221.183.13.22 -->
<g id="node9" class="node">
<title>221.183.13.22</title>
<ellipse fill="#868660" stroke="#000000" cx="580.1036" cy="-124" rx="77.9862" ry="18"/>
<text text-anchor="middle" x="580.1036" y="-120.3" font-family="Times,serif" font-size="14.00" fill="#000000">221.183.13.22</text>
</g>
<!-- 221.183.13.22&#45;&gt;111.11.1.1 443/tcp -->
<g id="edge20" class="edge">
<title>221.183.13.22&#45;&gt;111.11.1.1 443/tcp</title>
<path fill="none" stroke="#a04040" d="M580.1036,-105.7872C580.1036,-93.3443 580.1036,-76.6053 580.1036,-62.4211"/>
<polygon fill="#a04040" stroke="#a04040" points="583.6037,-62.1857 580.1036,-52.1858 576.6037,-62.1858 583.6037,-62.1857"/>
</g>
<!-- 10.13.0.1&#45;&gt;221.192.10.121 -->
<g id="edge2" class="edge">
<title>10.13.0.1&#45;&gt;221.192.10.121</title>
<path fill="none" stroke="#a07070" d="M106.3836,-485.8015C105.3308,-475.3976 105.0851,-462.1215 105.6464,-450.3768"/>
<polygon fill="#a07070" stroke="#a07070" points="109.1556,-450.3747 106.3887,-440.1476 102.174,-449.868 109.1556,-450.3747"/>
</g>
<!-- 10.13.0.1&#45;&gt;221.192.10.121 -->
<g id="edge12" class="edge">
<title>10.13.0.1&#45;&gt;221.192.10.121</title>
<path fill="none" stroke="#a04040" d="M117.8236,-485.8015C118.8764,-475.3976 119.1221,-462.1215 118.5608,-450.3768"/>
<polygon fill="#a04040" stroke="#a04040" points="122.0332,-449.868 117.8185,-440.1476 115.0516,-450.3747 122.0332,-449.868"/>
</g>
<!-- unk0&#45;&gt;219.158.3.66 -->
<g id="edge5" class="edge">
<title>unk0&#45;&gt;219.158.3.66</title>
<path fill="none" stroke="#a07070" d="M28.1521,-294.1813C11.056,-313.4974 -11.2984,-345.9505 7.1036,-368 35.7587,-402.3349 161.1496,-395.7508 205.1036,-404 213.559,-405.5869 222.4422,-407.2769 231.2252,-408.9615"/>
<polygon fill="#a07070" stroke="#a07070" points="230.5897,-412.4034 241.0709,-410.8555 231.9121,-405.5294 230.5897,-412.4034"/>
</g>
<!-- unk1&#45;&gt;221.183.25.53 -->
<g id="edge7" class="edge">
<title>unk1&#45;&gt;221.183.25.53</title>
<path fill="none" stroke="#a07070" d="M455.7758,-331.8875C446.3757,-292.5463 424.0364,-199.0521 412.8004,-152.0273"/>
<polygon fill="#a07070" stroke="#a07070" points="416.1802,-151.1116 410.452,-142.1988 409.3718,-152.7384 416.1802,-151.1116"/>
</g>
<!-- unk2&#45;&gt;221.183.19.98 -->
<g id="edge9" class="edge">
<title>unk2&#45;&gt;221.183.19.98</title>
<path fill="none" stroke="#a07070" d="M382.9458,-50.9322C373.196,-63.3743 358.4726,-79.8206 342.1036,-90 339.5449,-91.5912 314.9871,-99.2281 289.7243,-106.8617"/>
<polygon fill="#a07070" stroke="#a07070" points="288.6179,-103.5395 280.0519,-109.7746 290.6364,-110.2422 288.6179,-103.5395"/>
</g>
<!-- unk3&#45;&gt;219.158.3.66 -->
<g id="edge15" class="edge">
<title>unk3&#45;&gt;219.158.3.66</title>
<path fill="none" stroke="#a04040" d="M345.3488,-290.5348C357.9727,-298.2832 372.0361,-309.528 379.1036,-324 387.6851,-341.5721 388.331,-350.7584 379.1036,-368 371.5804,-382.0572 358.6027,-393.087 345.2119,-401.4118"/>
<polygon fill="#a04040" stroke="#a04040" points="343.3159,-398.465 336.4059,-406.4963 346.8161,-404.527 343.3159,-398.465"/>
</g>
<!-- unk5 -->
<g id="node17" class="node">
<title>unk5</title>
<ellipse fill="none" stroke="#000000" cx="572.1036" cy="-278" rx="34.394" ry="18"/>
<text text-anchor="middle" x="572.1036" y="-274.3" font-family="Times,serif" font-size="14.00" fill="#000000">unk5</text>
</g>
<!-- unk4&#45;&gt;unk5 -->
<g id="edge17" class="edge">
<title>unk4&#45;&gt;unk5</title>
<path fill="none" stroke="#a04040" d="M569.8606,-331.8314C570.1815,-324.131 570.563,-314.9743 570.9196,-306.4166"/>
<polygon fill="#a04040" stroke="#a04040" points="574.4169,-306.5503 571.3364,-296.4133 567.423,-306.2589 574.4169,-306.5503"/>
</g>
<!-- unk6 -->
<g id="node18" class="node">
<title>unk6</title>
<ellipse fill="none" stroke="#000000" cx="577.1036" cy="-206" rx="34.394" ry="18"/>
<text text-anchor="middle" x="577.1036" y="-202.3" font-family="Times,serif" font-size="14.00" fill="#000000">unk6</text>
</g>
<!-- unk5&#45;&gt;unk6 -->
<g id="edge18" class="edge">
<title>unk5&#45;&gt;unk6</title>
<path fill="none" stroke="#a04040" d="M573.3653,-259.8314C573.9001,-252.131 574.5359,-242.9743 575.1302,-234.4166"/>
<polygon fill="#a04040" stroke="#a04040" points="578.6236,-234.6317 575.8249,-224.4133 571.6404,-234.1467 578.6236,-234.6317"/>
</g>
<!-- unk6&#45;&gt;221.183.13.22 -->
<g id="edge19" class="edge">
<title>unk6&#45;&gt;221.183.13.22</title>
<path fill="none" stroke="#a04040" d="M577.7694,-187.8015C578.15,-177.3976 578.6357,-164.1215 579.0654,-152.3768"/>
<polygon fill="#a04040" stroke="#a04040" points="582.5716,-152.2689 579.4397,-142.1476 575.5763,-152.0129 582.5716,-152.2689"/>
</g>
</g>
</svg>
